<svg xmlns="http://www.w3.org/2000/svg" viewBox="0 0 24 24">
    <symbol viewBox="0 0 24 24" id="instagram">
        <path fill="currentColor" fill-rule="evenodd"
            d="M7.465 1.066C8.638 1.012 9.012 1 12 1c2.988 0 3.362.013 4.534.066c1.172.053 1.972.24 2.672.511c.733.277 1.398.71 1.948 1.27c.56.549.992 1.213 1.268 1.947c.272.7.458 1.5.512 2.67C22.988 8.639 23 9.013 23 12c0 2.988-.013 3.362-.066 4.535c-.053 1.17-.24 1.97-.512 2.67a5.396 5.396 0 0 1-1.268 1.949c-.55.56-1.215.992-1.948 1.268c-.7.272-1.5.458-2.67.512c-1.174.054-1.548.066-4.536.066c-2.988 0-3.362-.013-4.535-.066c-1.17-.053-1.97-.24-2.67-.512a5.397 5.397 0 0 1-1.949-1.268a5.392 5.392 0 0 1-1.269-1.948c-.271-.7-.457-1.5-.511-2.67C1.012 15.361 1 14.987 1 12c0-2.988.013-3.362.066-4.534c.053-1.172.24-1.972.511-2.672a5.396 5.396 0 0 1 1.27-1.948a5.392 5.392 0 0 1 1.947-1.269c.7-.271 1.5-.457 2.67-.511m8.98 1.98c-1.16-.053-1.508-.064-4.445-.064c-2.937 0-3.285.011-4.445.064c-1.073.049-1.655.228-2.043.379c-.513.2-.88.437-1.265.822a3.412 3.412 0 0 0-.822 1.265c-.151.388-.33.97-.379 2.043c-.053 1.16-.064 1.508-.064 4.445c0 2.937.011 3.285.064 4.445c.049 1.073.228 1.655.379 2.043c.176.477.457.91.822 1.265c.355.365.788.646 1.265.822c.388.151.97.33 2.043.379c1.16.053 1.507.064 4.445.064c2.938 0 3.285-.011 4.445-.064c1.073-.049 1.655-.228 2.043-.379c.513-.2.88-.437 1.265-.822c.365-.355.646-.788.822-1.265c.151-.388.33-.97.379-2.043c.053-1.16.064-1.508.064-4.445c0-2.937-.011-3.285-.064-4.445c-.049-1.073-.228-1.655-.379-2.043c-.2-.513-.437-.88-.822-1.265a3.413 3.413 0 0 0-1.265-.822c-.388-.151-.97-.33-2.043-.379m-5.85 12.345a3.669 3.669 0 0 0 4-5.986a3.67 3.67 0 1 0-4 5.986M8.002 8.002a5.654 5.654 0 1 1 7.996 7.996a5.654 5.654 0 0 1-7.996-7.996m10.906-.814a1.337 1.337 0 1 0-1.89-1.89a1.337 1.337 0 0 0 1.89 1.89"
            clip-rule="evenodd"></path>
    </symbol>

    <symbol viewBox="0 0 24 24" id="telegram">
        <path fill="currentColor"
            d="m20.665 3.717l-17.73 6.837c-1.21.486-1.203 1.161-.222 1.462l4.552 1.42l10.532-6.645c.498-.303.953-.14.579.192l-8.533 7.701h-.002l.002.001l-.314 4.692c.46 0 .663-.211.921-.46l2.211-2.15l4.599 3.397c.848.467 1.457.227 1.668-.785l3.019-14.228c.309-1.239-.473-1.8-1.282-1.434"></path>
    </symbol>

    <symbol viewBox="0 0 24 24" id="youtube">
        <path fill="currentColor"
            d="M23.5 6.507a2.786 2.786 0 0 0-.766-1.27a3.05 3.05 0 0 0-1.338-.742C19.518 4 11.994 4 11.994 4a76.624 76.624 0 0 0-9.39.47a3.16 3.16 0 0 0-1.338.76c-.37.356-.638.795-.778 1.276A29.09 29.09 0 0 0 0 12c-.012 1.841.151 3.68.488 5.494c.137.479.404.916.775 1.269c.371.353.833.608 1.341.743c1.903.494 9.39.494 9.39.494a76.8 76.8 0 0 0 9.402-.47a3.05 3.05 0 0 0 1.338-.742a2.78 2.78 0 0 0 .765-1.27A28.38 28.38 0 0 0 24 12.023a26.579 26.579 0 0 0-.5-5.517M9.602 15.424V8.577l6.26 3.424z"></path>
        <clipPath id="akarIconsYoutubeFill0">
            <path fill="currentColor" d="M0 0h24v24H0z"></path>
        </clipPath>
    </symbol>

    <symbol viewBox="0 0 24 24" id="vk">
        <g clip-path="url(#clip0_4_21)">
            <path
                d="M21.1429 0H2.85714C1.28 0 0 1.28 0 2.85714V21.1429C0 22.72 1.28 24 2.85714 24H21.1429C22.72 24 24 22.72 24 21.1429V2.85714C24 1.28 22.72 0 21.1429 0ZM19.2686 16.5714L17.1371 16.5657C17.1371 16.5657 17.0914 16.5714 17.0171 16.5714C16.8457 16.5714 16.4914 16.5257 16.0743 16.24C15.3257 15.72 14.6114 14.4286 14.0457 14.4286C14.0057 14.4286 13.9714 14.4343 13.9371 14.4457C13.4457 14.6 13.2971 15.0914 13.2971 15.6914C13.2971 15.9029 13.1486 16 12.7486 16H11.6457C10.4114 16 9.21714 15.9714 7.87429 14.5029C5.89714 12.3371 4.04571 8.48571 4.04571 8.48571C4.04571 8.48571 3.94286 8.26286 4.05143 8.13143C4.15429 8.01143 4.39429 8 4.48571 8C4.50857 8 4.52 8 4.52 8H6.80571C6.80571 8 7.01714 8.04 7.17143 8.15429C7.30286 8.25143 7.37143 8.42857 7.37143 8.42857C7.37143 8.42857 7.76 9.18286 8.24571 10.0343C9.06286 11.44 9.50286 11.9086 9.81714 11.9086C9.86857 11.9086 9.92 11.8971 9.97143 11.8686C10.44 11.6114 10.3029 9.53143 10.3029 9.53143C10.3029 9.53143 10.3086 8.77714 10.0629 8.44572C9.87429 8.18286 9.51429 8.10857 9.35429 8.08571C9.22857 8.06857 9.43429 7.77143 9.70857 7.63429C10.0629 7.46286 10.6514 7.42857 11.36 7.42857H11.7029C12.3714 7.44 12.3886 7.50857 12.6514 7.57143C13.44 7.76 13.1714 8.49714 13.1714 10.2629C13.1714 10.8286 13.0686 11.6229 13.4743 11.8914C13.5029 11.9086 13.5429 11.92 13.5943 11.92C13.8571 11.92 14.4229 11.5829 15.3257 10.0571C15.8286 9.18857 16.2171 8.32571 16.2171 8.32571C16.2171 8.32571 16.3029 8.17143 16.4343 8.09143C16.56 8.01714 16.56 8.01714 16.7257 8.01714H16.7429C16.9257 8.01714 18.7429 8 19.1429 8H19.1886C19.5714 8 19.92 8.00571 19.9829 8.24C20.0743 8.59429 19.7029 9.22857 18.7257 10.5429C17.1143 12.6971 16.9314 12.5371 18.2686 13.7829C19.5486 14.9714 19.8114 15.5486 19.8571 15.6229C20.3886 16.5029 19.2686 16.5714 19.2686 16.5714Z"
                fill="black" />
        </g>
        <defs>
            <clipPath id="clip0_4_21">
                <rect width="24" height="24" fill="white" />
            </clipPath>
        </defs>
    </symbol>

    <symbol viewBox="0 0 24 24" id="whatsapp">
        <path fill-rule="evenodd" clip-rule="evenodd"
            d="M20.5033 3.4878C18.2472 1.23986 15.2467 0.0013125 12.0502 0C5.4635 0 0.102867 5.33483 0.10023 11.8917C0.0993254 13.9878 0.649496 16.0339 1.69528 17.8374L0 24L6.33486 22.3462C8.08036 23.2938 10.0455 23.7932 12.0453 23.7938H12.0504C18.6363 23.7938 23.9975 18.4585 24 11.9013C24.0014 8.72344 22.7595 5.73563 20.5033 3.4878ZM12.0502 21.7853H12.046C10.2639 21.7845 8.51602 21.3079 6.99083 20.4074L6.62835 20.1931L2.86913 21.1746L3.87248 17.5269L3.63623 17.153C2.64199 15.5792 2.11696 13.7601 2.11786 11.8925C2.11993 6.4425 6.57563 2.00858 12.0542 2.00858C14.7071 2.00944 17.2009 3.03893 19.0761 4.90733C20.9512 6.77573 21.9833 9.25924 21.9825 11.9005C21.9801 17.3509 17.5247 21.7853 12.0502 21.7853ZM17.4982 14.3821C17.1997 14.2333 15.7317 13.5146 15.4579 13.4153C15.1844 13.3161 14.9851 13.2668 14.7863 13.5641C14.5871 13.8615 14.015 14.5309 13.8407 14.7291C13.6664 14.9275 13.4925 14.9523 13.1938 14.8035C12.8952 14.6549 11.9331 14.3409 10.7926 13.3286C9.90503 12.5406 9.30584 11.5676 9.13157 11.2702C8.9576 10.9725 9.13006 10.8272 9.26254 10.6637C9.58576 10.2643 9.90944 9.84547 10.009 9.64729C10.1086 9.44891 10.0587 9.27536 9.98393 9.12668C9.90944 8.97799 9.31232 7.51534 9.06355 6.92018C8.821 6.34099 8.57503 6.41918 8.39164 6.41014C8.21767 6.40148 8.01853 6.39971 7.81939 6.39971C7.62036 6.39971 7.29683 6.47396 7.02309 6.77164C6.74945 7.06916 5.97821 7.78796 5.97821 9.25061C5.97821 10.7133 7.04811 12.1262 7.19736 12.3246C7.34657 12.5229 9.3029 15.5244 12.298 16.8114C13.0104 17.1179 13.5665 17.3005 14.0003 17.4375C14.7156 17.6636 15.3663 17.6317 15.8809 17.5552C16.4546 17.4698 17.6473 16.8363 17.8964 16.1422C18.1451 15.4481 18.1451 14.8532 18.0703 14.7291C17.9959 14.6052 17.7967 14.5309 17.4982 14.3821Z"
            fill="#343A3F" />
    </symbol>

    <symbol viewBox="0 0 24 24" id="tiktok">
        <path
            d="M21.1429 0H2.85714C1.28171 0 0 1.28171 0 2.85714V21.1429C0 22.7183 1.28171 24 2.85714 24H21.1429C22.7183 24 24 22.7183 24 21.1429V2.85714C24 1.28171 22.7183 0 21.1429 0ZM18.8606 10.4703C18.7309 10.4823 18.5994 10.4903 18.4663 10.4903C16.9674 10.4903 15.6503 9.71943 14.884 8.55429C14.884 11.6109 14.884 15.0886 14.884 15.1469C14.884 17.8377 12.7023 20.0194 10.0114 20.0194C7.32057 20.0194 5.13886 17.8377 5.13886 15.1469C5.13886 12.456 7.32057 10.2743 10.0114 10.2743C10.1131 10.2743 10.2126 10.2834 10.3126 10.2897V12.6909C10.2126 12.6789 10.1143 12.6606 10.0114 12.6606C8.63771 12.6606 7.52457 13.7737 7.52457 15.1474C7.52457 16.5211 8.63771 17.6343 10.0114 17.6343C11.3851 17.6343 12.5983 16.552 12.5983 15.1783C12.5983 15.124 12.6223 3.98171 12.6223 3.98171H14.9171C15.1331 6.03371 16.7897 7.65314 18.8606 7.80171V10.4703Z"
            fill="black" />
    </symbol>

    <symbol viewBox="0 0 24 24" id="facebook">
        <path
            d="M21.216 -0.0960083H2.78402C1.19426 -0.0960083 -0.0959778 1.19423 -0.0959778 2.78399V21.216C-0.0959778 22.8058 1.19426 24.096 2.78402 24.096H21.216C22.8058 24.096 24.096 22.8058 24.096 21.216V2.78399C24.096 1.19423 22.8058 -0.0960083 21.216 -0.0960083ZM18.912 8.54399H17.76C16.5274 8.54399 16.032 8.83199 16.032 9.69599V11.424H18.912L18.336 14.304H16.032V22.944H13.152V14.304H10.848V11.424H13.152V9.69599C13.152 7.39199 14.304 5.66399 16.608 5.66399C18.2784 5.66399 18.912 6.23999 18.912 6.23999V8.54399Z"
            fill="black" />
    </symbol>

    <symbol viewBox="0 0 24 24" id="telephone">
        <path
            d="M13.465 1.24837e-05H3.53498C3.07038 -0.00112657 2.61011 0.0756931 2.18062 0.226054C1.75113 0.376414 1.36091 0.597349 1.03239 0.876151C0.70387 1.15495 0.443537 1.48612 0.266364 1.85061C0.0891906 2.2151 -0.00132746 2.60572 1.47098e-05 3.00001V21C1.47098e-05 22.6636 1.60682 24 3.53498 24H13.465C13.9296 24.0011 14.3899 23.9243 14.8194 23.7739C15.2489 23.6236 15.6391 23.4027 15.9676 23.1238C16.2961 22.845 16.5565 22.5139 16.7336 22.1494C16.9108 21.7849 17.0013 21.3943 17 21V3.00001C17.0013 2.60572 16.9108 2.2151 16.7336 1.85061C16.5565 1.48612 16.2961 1.15495 15.9676 0.876151C15.6391 0.597349 15.2489 0.376414 14.8194 0.226054C14.3899 0.0756931 13.9296 -0.00112657 13.465 1.24837e-05ZM8.51607 22.0636C7.61626 22.0636 6.90927 21.4636 6.90927 20.7C6.90927 19.9364 7.61626 19.3364 8.51607 19.3364C9.41588 19.3364 10.1229 19.9364 10.1229 20.7C10.1229 21.4636 9.41588 22.0636 8.51607 22.0636ZM15.3932 17.8909H1.60682V4.0091H15.3932V17.8909Z"
            fill="#343A3F" />
    </symbol>

    <symbol viewBox="0 0 24 24" id="github">
        <path fill-rule="evenodd" clip-rule="evenodd"
            d="M12.0099 0C5.36875 0 0 5.49998 0 12.3042C0 17.7432 3.43994 22.3472 8.21205 23.9767C8.80869 24.0992 9.02724 23.7119 9.02724 23.3862C9.02724 23.1009 9.00757 22.1232 9.00757 21.1044C5.6667 21.8379 4.97099 19.6377 4.97099 19.6377C4.43409 18.2117 3.63858 17.8452 3.63858 17.8452C2.54511 17.0914 3.71823 17.0914 3.71823 17.0914C4.93117 17.1729 5.56763 18.3544 5.56763 18.3544C6.64118 20.2284 8.37111 19.6989 9.06706 19.3729C9.16638 18.5784 9.48473 18.0284 9.82275 17.7229C7.15817 17.4377 4.35469 16.3784 4.35469 11.6522C4.35469 10.3077 4.8316 9.20771 5.58729 8.35222C5.46807 8.04672 5.0504 6.78347 5.70677 5.09273C5.70677 5.09273 6.72083 4.76673 9.00732 6.35572C9.98625 6.08639 10.9958 5.94938 12.0099 5.94823C13.024 5.94823 14.0577 6.09098 15.0123 6.35572C17.299 4.76673 18.3131 5.09273 18.3131 5.09273C18.9695 6.78347 18.5515 8.04672 18.4323 8.35222C19.2079 9.20771 19.6652 10.3077 19.6652 11.6522C19.6652 16.3784 16.8617 17.4172 14.1772 17.7229C14.6148 18.1099 14.9924 18.8432 14.9924 20.0044C14.9924 21.6544 14.9727 22.9787 14.9727 23.3859C14.9727 23.7119 15.1915 24.0992 15.7879 23.9769C20.56 22.3469 23.9999 17.7432 23.9999 12.3042C24.0196 5.49998 18.6312 0 12.0099 0Z"
            fill="currentColor" />
    </symbol>
</svg>